<svg height="512" viewBox="0 0 512 512" width="512" xmlns="http://www.w3.org/2000/svg"><path d="M267.563 267.102v46.97c8.91-4.328 14.187-12.94 15.557-21.089.753-4.477 1.82-19.478-15.557-25.881zm-34.334-56.276c-1.158 6.142.369 11.895 3.89 14.656 1.61 1.263 3.445 2.493 5.445 3.693v-32.326c-5.48 3.252-8.406 9.042-9.335 13.977z"/><path d="M256 110c-80.505 0-146 65.495-146 146s65.495 146 146 146 146-65.495 146-146-65.495-146-146-146zm51.774 187.128c-1.988 11.827-7.938 22.802-16.754 30.901-6.725 6.179-14.69 10.379-23.457 12.43V351c0 6.903-5.597 12.5-12.5 12.5s-12.5-5.597-12.5-12.5v-9.417c-11.235-.849-20.351-3.689-33.403-12.227-5.777-3.779-7.396-11.526-3.617-17.304 3.779-5.776 11.526-7.396 17.304-3.617 7.905 5.172 12.829 7.254 19.716 8.041v-59.205c-8.901-4.038-15.498-7.902-20.874-12.119-10.947-8.585-15.939-23.513-13.029-38.956 3.178-16.866 14.907-30.281 30.608-35.011a76.69 76.69 0 013.294-.904V161c0-6.903 5.597-12.5 12.5-12.5s12.5 5.597 12.5 12.5v7.854c13.357 2.082 22.762 8.587 27.263 13.753 4.535 5.205 3.992 13.101-1.214 17.636-5.184 4.517-13.036 3.995-17.579-1.149-.233-.235-3.029-2.954-8.47-4.615v46.024c2.648.989 5.296 1.944 7.893 2.861 23.715 8.382 36.401 29.486 32.319 53.764zm61.555 93.413c-15.714 13.257-33.768 23.822-53.452 30.965l20.758 77.471c33.352-11.097 63.672-28.883 89.373-51.757zM225.098 82.719C235.134 80.934 245.46 80 256 80s20.866.934 30.901 2.719l20.76-77.479C290.971 1.806 273.692 0 256 0s-34.971 1.806-51.662 5.24zm196.408 113.405l77.471-20.758c-11.097-33.352-28.883-63.672-51.757-89.373l-56.679 56.679c13.258 15.713 23.822 33.768 30.965 53.452zm-52.177-74.665l56.679-56.679c-25.701-22.875-56.02-40.661-89.373-51.757l-20.758 77.471c19.683 7.143 37.738 17.707 53.452 30.965zM432 256c0 10.54-.934 20.866-2.719 30.901l77.479 20.76c3.434-16.691 5.24-33.97 5.24-51.662s-1.806-34.971-5.24-51.662l-77.479 20.76A176.377 176.377 0 01432 256zm-10.494 59.876c-7.143 19.684-17.708 37.738-30.965 53.452l56.679 56.679c22.875-25.701 40.661-56.02 51.757-89.373zM90.494 196.124c7.143-19.684 17.708-37.738 30.965-53.452L64.78 85.993c-22.875 25.701-40.661 56.02-51.757 89.373zm52.177 194.417L85.993 447.22c25.701 22.875 56.02 40.661 89.373 51.757l20.758-77.471c-19.684-7.143-37.739-17.707-53.453-30.965zm0-269.082c15.714-13.257 33.768-23.822 53.452-30.965l-20.758-77.471C142.013 24.12 111.694 41.905 85.993 64.78zm144.231 307.822C276.866 431.066 266.54 432 256 432s-20.866-.934-30.902-2.719l-20.76 77.479c16.691 3.434 33.97 5.24 51.662 5.24s34.971-1.806 51.662-5.24zM80 256c0-10.54.934-20.866 2.719-30.901L5.24 204.338C1.806 221.029 0 238.308 0 256s1.806 34.971 5.24 51.662l77.479-20.76A176.357 176.357 0 0180 256zm10.494 59.876l-77.471 20.758c11.097 33.352 28.883 63.672 51.757 89.373l56.679-56.679c-13.258-15.713-23.822-33.768-30.965-53.452z"/></svg>